<svg width="18" height="68" viewBox="0 0 18 68" fill="none" xmlns="http://www.w3.org/2000/svg">
<path fill-rule="evenodd" clip-rule="evenodd" d="M0 25.9417L0.339352 65.8396H0.339904C0.350388 67.0244 1.32377 67.9836 2.51959 67.9852L15.2939 68C16.4886 68.0016 17.4653 67.0441 17.4797 65.862L17.9995 25.9613C18.063 21.3685 12.0864 19.5496 12.0908 16.7038L12.0968 12.9894L12.1117 3.82418H12.28C12.5096 3.82418 12.6978 3.63847 12.6983 3.41015L12.7005 1.91838C12.7011 1.68951 12.514 1.50323 12.2834 1.50323L12.1167 1.50378L12.1173 0.757629V0.739058L12.1167 0.719394V0.69973L12.1145 0.681158L12.1123 0.663132C12.1062 0.612878 12.0941 0.565357 12.0792 0.518375L12.0726 0.500348C11.9815 0.253454 11.7619 0.0666335 11.4959 0.0185719C11.4843 0.016387 11.4705 0.0147483 11.459 0.0131096L11.4385 0.0098322L11.4203 0.0081935L11.4005 0.0065548L11.3812 0.00600857H11.3624L6.47344 0H6.46075L6.44806 0.000546233L6.43482 0.00109247L6.42102 0.00273117L6.40833 0.00436987L6.39619 0.00600857L6.3835 0.0081935H6.38295L6.37081 0.0103784L6.35811 0.0136558L6.34597 0.0158408H6.34542L6.33439 0.0191182L6.32335 0.0229418L6.31121 0.0267654H6.31066L6.29962 0.0305891C6.19533 0.068279 6.10594 0.139289 6.04579 0.231058C6.03806 0.244167 6.02979 0.258369 6.02206 0.273117H6.02151L6.01654 0.284042H6.01599L6.01047 0.294967L6.00551 0.306984H6.00385L5.99888 0.317908L5.99668 0.329926L5.99171 0.34085L5.98785 0.352867L5.98123 0.376903L5.97902 0.38892L5.97516 0.400937L5.97295 0.4135L5.9724 0.426064L5.97019 0.438627L5.96853 0.450644L5.96798 0.463208V0.47577L5.96743 0.48888V0.501444L5.96578 1.49614H5.79913C5.56792 1.49614 5.38086 1.68185 5.37975 1.91018L5.37754 3.40195C5.37754 3.63081 5.5635 3.81709 5.79525 3.81709H5.9619L5.9459 12.9823L5.93983 16.6967C5.93376 19.4546 0.124903 21.4883 0.000168128 25.9405L0 25.9417ZM14.7436 25.4375L16.0425 25.4391L15.7296 62.9277L15.2302 62.9272L14.7436 25.4375Z" fill="#BBADA4"/>
</svg>
