<svg width="41" height="25" viewBox="0 0 41 25" fill="none" xmlns="http://www.w3.org/2000/svg">
<path d="M8.67894 0.0590509C8.75768 -0.0196836 8.88652 -0.0196836 8.96525 0.0590509L14.5948 5.65278C14.7594 5.81741 14.9741 5.87467 15.2032 5.84604L16.5273 5.67783C17.1966 5.59194 17.7799 5.86393 18.4671 6.55107L18.825 6.90895L21.416 9.50004L31.5191 19.6031C31.8197 19.9037 31.8197 20.394 31.5191 20.6947L27.4392 24.7745C27.1386 25.0752 26.6483 25.0752 26.3477 24.7745L16.2446 14.6715L13.6535 12.0804L13.2957 11.7225C12.7087 11.1356 12.3294 10.5057 12.4224 9.78276L12.5942 8.42638C12.6192 8.21523 12.5477 8.0005 12.3974 7.85019L6.78574 2.23857C6.707 2.15983 6.707 2.03099 6.78574 1.95226L8.67894 0.0590509Z" fill="url(#paint0_linear_34_534815)"/>
<path d="M31.34 0.0590509C31.2613 -0.0196836 31.1324 -0.0196836 31.0537 0.0590509L25.4242 5.65278C25.2596 5.81741 25.0448 5.87467 24.8158 5.84604L23.4916 5.67783C22.8224 5.59194 22.239 5.86393 21.5519 6.55107L21.194 6.90895L18.6029 9.50004L8.50342 19.6031C8.2028 19.9037 8.2028 20.394 8.50342 20.6947L12.5833 24.7745C12.8839 25.0752 13.3742 25.0752 13.6748 24.7745L23.7743 14.6715L26.3654 12.0804L26.7233 11.7225C27.3102 11.1356 27.6896 10.5057 27.5965 9.78276L27.4248 8.42638C27.3997 8.21523 27.4713 8.0005 27.6216 7.85019L33.2332 2.23857C33.312 2.15983 33.312 2.03099 33.2332 1.95226L31.34 0.0590509Z" fill="url(#paint1_linear_34_534815)"/>
<path d="M7.71979 11.4505L5.15733 11.2143L4.14094 8.85223C4.06937 8.6876 3.83674 8.6876 3.76517 8.85223L2.74877 11.2143L0.186324 11.4505C0.00738223 11.4684 -0.0641946 11.6903 0.0682225 11.8084L2.0008 13.5047L1.43534 16.0135C1.39597 16.1889 1.58565 16.3284 1.73954 16.2354L3.95127 14.9219L6.16299 16.2354C6.31688 16.3284 6.50656 16.1889 6.46719 16.0135L5.90173 13.5047L7.83431 11.8084C7.97388 11.6903 7.89873 11.4684 7.71979 11.4505Z" fill="url(#paint2_linear_34_534815)"/>
<path d="M39.8256 11.4505L37.2632 11.2143L36.2468 8.85223C36.1752 8.6876 35.9426 8.6876 35.871 8.85223L34.8546 11.2143L32.2922 11.4505C32.1132 11.4684 32.0416 11.6903 32.1741 11.8084L34.1066 13.5047L33.5412 16.0135C33.5018 16.1889 33.6915 16.3284 33.8454 16.2354L36.0571 14.9219L38.2688 16.2354C38.4227 16.3284 38.6124 16.1889 38.573 16.0135L38.0076 13.5047L39.9401 11.8084C40.0761 11.6903 40.0046 11.4684 39.8256 11.4505Z" fill="url(#paint3_linear_34_534815)"/>
<defs>
<linearGradient id="paint0_linear_34_534815" x1="15.995" y1="14.4788" x2="24.7731" y2="5.7007" gradientUnits="userSpaceOnUse">
<stop offset="0.0214" stop-color="#CC9E42"/>
<stop offset="0.4204" stop-color="#FCE294"/>
<stop offset="0.835" stop-color="#FFF9E1"/>
<stop offset="1" stop-color="#FCE294"/>
</linearGradient>
<linearGradient id="paint1_linear_34_534815" x1="24.0255" y1="14.4788" x2="15.2473" y2="5.70067" gradientUnits="userSpaceOnUse">
<stop offset="0.0214" stop-color="#CC9E42"/>
<stop offset="0.4204" stop-color="#FCE294"/>
<stop offset="0.835" stop-color="#FFF9E1"/>
<stop offset="1" stop-color="#FCE294"/>
</linearGradient>
<linearGradient id="paint2_linear_34_534815" x1="3.95359" y1="24.8196" x2="3.95359" y2="-5.87993" gradientUnits="userSpaceOnUse">
<stop offset="0.0214" stop-color="#CC9E42"/>
<stop offset="0.4204" stop-color="#FCE294"/>
<stop offset="0.835" stop-color="#FFF9E1"/>
<stop offset="1" stop-color="#FCE294"/>
</linearGradient>
<linearGradient id="paint3_linear_34_534815" x1="36.0585" y1="24.8196" x2="36.0585" y2="-5.87993" gradientUnits="userSpaceOnUse">
<stop offset="0.0214" stop-color="#CC9E42"/>
<stop offset="0.4204" stop-color="#FCE294"/>
<stop offset="0.835" stop-color="#FFF9E1"/>
<stop offset="1" stop-color="#FCE294"/>
</linearGradient>
</defs>
</svg>
