<svg width="38" height="38" viewBox="0 0 38 38" fill="none" xmlns="http://www.w3.org/2000/svg">
<path d="M19 1.58086C21.3527 1.58086 23.6313 2.04102 25.7836 2.94648C27.8617 3.82227 29.7246 5.08398 31.3203 6.67969C32.9234 8.28281 34.1777 10.1457 35.0535 12.2164C35.959 14.3613 36.4191 16.6473 36.4191 19C36.4191 21.3527 35.959 23.6313 35.0535 25.7836C34.1777 27.8617 32.916 29.7246 31.3203 31.3203C29.7172 32.9234 27.8543 34.1777 25.7836 35.0535C23.6387 35.959 21.3527 36.4191 19 36.4191C16.6473 36.4191 14.3688 35.959 12.2164 35.0535C10.1383 34.1777 8.27539 32.916 6.67969 31.3203C5.08398 29.7246 3.82227 27.8543 2.94648 25.7836C2.04102 23.6387 1.58086 21.3527 1.58086 19C1.58086 16.6473 2.04102 14.3688 2.94648 12.2164C3.82227 10.1383 5.08398 8.27539 6.67969 6.67969C8.28281 5.07656 10.1457 3.82227 12.2164 2.94648C14.3688 2.04102 16.6473 1.58086 19 1.58086ZM19 0C8.50547 0 0 8.50547 0 19C0 29.4945 8.50547 38 19 38C29.4945 38 38 29.4945 38 19C38 8.50547 29.4945 0 19 0Z" fill="#A3C0CE"/>
<path fill-rule="evenodd" clip-rule="evenodd" d="M27.832 15.8481H10.168V14.2703H27.832V15.8481Z" fill="#BBADA4"/>
<path fill-rule="evenodd" clip-rule="evenodd" d="M26.7172 15.0583L24.8687 13.2041L25.9861 12.0901L28.9469 15.0601L25.9852 18.0218L24.8695 16.906L26.7172 15.0583Z" fill="#BBADA4"/>
<path fill-rule="evenodd" clip-rule="evenodd" d="M10.168 22.1521H27.832V23.73H10.168V22.1521Z" fill="#BBADA4"/>
<path fill-rule="evenodd" clip-rule="evenodd" d="M12.0147 19.9785L13.1304 21.0942L11.2827 22.9419L13.1313 24.7962L12.0138 25.9102L9.05298 22.9402L12.0147 19.9785Z" fill="#BBADA4"/>
</svg>
