<svg width="38" height="38" viewBox="0 0 38 38" fill="none" xmlns="http://www.w3.org/2000/svg">
<g clip-path="url(#clip0_34_535354)">
<path d="M23.1859 13.0848C25.175 13.0848 26.7855 14.7027 26.7855 16.6844C26.7855 18.1168 25.2714 20.3359 22.6367 22.7703C21.2488 24.0543 19.8535 25.1305 18.9851 25.7613C18.1167 25.1453 16.7289 24.0988 15.3484 22.8445C12.6839 20.4102 11.2144 18.2207 11.2144 16.677C11.2144 15.4523 11.5484 14.5246 12.2164 13.9234C12.9882 13.2258 14.057 13.0773 14.8214 13.0773C15.9792 13.0773 17.0406 13.6191 17.7308 14.5691L19.0074 16.3207L20.2839 14.5691C20.9667 13.6266 22.0281 13.0848 23.1859 13.0848ZM23.1859 11.5039C21.464 11.5039 19.9425 12.35 19 13.6414C18.0574 12.35 16.5359 11.5039 14.814 11.5039C11.9566 11.5039 9.63354 13.1219 9.63354 16.6844C9.63354 21.6348 19 27.691 19 27.691C19 27.691 28.3664 21.4121 28.3664 16.6844C28.3664 13.827 26.0433 11.5039 23.1859 11.5039Z" fill="#BBADA4"/>
<path d="M19.0371 1.58086C21.3898 1.58086 23.6684 2.04102 25.8207 2.94648C27.8988 3.82227 29.7617 5.08398 31.3574 6.67969C32.9605 8.28281 34.2148 10.1457 35.0906 12.2164C35.9961 14.3613 36.4562 16.6473 36.4562 19C36.4562 21.3527 35.9961 23.6313 35.0906 25.7836C34.2148 27.8617 32.9531 29.7246 31.3574 31.3203C29.7543 32.9234 27.8914 34.1777 25.8207 35.0535C23.6758 35.959 21.3898 36.4191 19.0371 36.4191C16.6844 36.4191 14.4059 35.959 12.2535 35.0535C10.1754 34.1777 8.3125 32.916 6.7168 31.3203C5.12109 29.7246 3.85938 27.8543 2.98359 25.7836C2.07812 23.6313 1.61797 21.3527 1.61797 19C1.61797 16.6473 2.07812 14.3688 2.98359 12.2164C3.85938 10.1383 5.12109 8.27539 6.7168 6.67969C8.31992 5.07656 10.1828 3.82227 12.2535 2.94648C14.4059 2.04102 16.6844 1.58086 19.0371 1.58086ZM19.0371 0C8.54258 0 0.0371094 8.50547 0.0371094 19C0.0371094 29.4945 8.54258 38 19.0371 38C29.5316 38 38.0371 29.4945 38.0371 19C38.0371 8.50547 29.5316 0 19.0371 0Z" fill="#A3C0CE"/>
</g>
<defs>
<clipPath id="clip0_34_535354">
<rect width="38" height="38" fill="white"/>
</clipPath>
</defs>
</svg>
