<svg width="28" height="28" viewBox="0 0 28 28" fill="none" xmlns="http://www.w3.org/2000/svg">
<path d="M16.4027 7.31656C16.7641 7.41356 17.1493 7.36278 17.4733 7.17571C17.7973 6.98865 18.0338 6.68049 18.1306 6.31893C18.2274 5.95761 18.1768 5.57238 17.9898 5.24838C17.8027 4.92438 17.4945 4.68782 17.133 4.59104C16.7717 4.49425 16.3864 4.54482 16.0624 4.73189C15.7384 4.91917 15.5019 5.22733 15.4051 5.58867C15.3081 5.95021 15.3589 6.33522 15.5459 6.65922C15.733 6.98344 16.0412 7.21978 16.4027 7.31656Z" fill="white"/>
<path d="M14.6226 19.4105L16.8804 10.9844C17.291 9.45205 15.5176 8.44727 13.1797 9.63044C11.7439 10.4603 10.4926 11.5747 9.50256 12.9052C9.50256 12.9052 14.1515 10.2658 13.3765 13.158L11.1186 21.5841C10.708 23.1165 12.4815 24.1212 14.8194 22.9381V22.9383C16.2551 22.1084 17.5064 20.9941 18.4965 19.6633C18.4965 19.6633 13.8476 22.3027 14.6226 19.4105V19.4105Z" fill="white"/>
<path d="M27.9999 14C27.9999 10.2869 26.5249 6.72607 23.8994 4.10051C21.274 1.47506 17.7128 0 14 0C10.2872 0 6.72607 1.47506 4.10051 4.10051C1.47506 6.72596 0 10.2872 0 14C0 17.7128 1.47506 21.2739 4.10051 23.8994C6.72596 26.5249 10.2872 27.9999 14 27.9999C16.4574 27.9999 18.8717 27.353 21 26.1243C23.1283 24.8955 24.8956 23.1282 26.1243 20.9999C27.3531 18.8716 28 16.4574 28 13.9999L27.9999 14ZM13.9999 26.4444C10.6994 26.4444 7.53435 25.1332 5.20046 22.7995C2.86656 20.4658 1.5555 17.3006 1.5555 14C1.5555 10.6995 2.86673 7.53446 5.20046 5.20057C7.53418 2.86667 10.6994 1.55561 13.9999 1.55561C17.3005 1.55561 20.4655 2.86684 22.7994 5.20057C25.1333 7.53429 26.4443 10.6995 26.4443 14C26.4406 17.2993 25.1283 20.4623 22.7952 22.7956C20.4623 25.1287 17.2991 26.441 13.9996 26.4447L13.9999 26.4444Z" fill="white"/>
</svg>
