<svg width="35" height="35" viewBox="0 0 35 35" fill="none" xmlns="http://www.w3.org/2000/svg">
<g clip-path="url(#clip0_1007_141)">
<path d="M17.5342 1.47656C19.7012 1.47656 21.7998 1.90039 23.7822 2.73437C25.6963 3.54101 27.4121 4.70312 28.8818 6.17285C30.3584 7.64941 31.5137 9.36523 32.3203 11.2725C33.1543 13.248 33.5781 15.3535 33.5781 17.5205C33.5781 19.6875 33.1543 21.7861 32.3203 23.7685C31.5137 25.6826 30.3516 27.3984 28.8818 28.8681C27.4053 30.3447 25.6895 31.5 23.7822 32.3066C21.8066 33.1406 19.7012 33.5644 17.5342 33.5644C15.3672 33.5644 13.2686 33.1406 11.2861 32.3066C9.37207 31.5 7.65625 30.3379 6.18652 28.8681C4.7168 27.3984 3.55469 25.6826 2.74805 23.7754C1.91406 21.7998 1.49023 19.6943 1.49023 17.5273C1.49023 15.3603 1.91406 13.2617 2.74805 11.2793C3.55469 9.36523 4.7168 7.64941 6.18652 6.17968C7.66309 4.70312 9.37891 3.54785 11.2861 2.74121C13.2686 1.90723 15.3672 1.47656 17.5342 1.47656ZM17.5342 0.0273438C7.86816 0.0273438 0.0341797 7.86132 0.0341797 17.5273C0.0341797 27.1933 7.86816 35.0273 17.5342 35.0273C27.2002 35.0273 35.0342 27.1933 35.0342 17.5273C35.0342 7.86132 27.2002 0.0273438 17.5342 0.0273438Z" fill="#A3C0CE"/>
<circle cx="17.5" cy="17.5" r="16.5" fill="#C4C4C4"/>
<path fill-rule="evenodd" clip-rule="evenodd" d="M33.0611 23C33.6691 21.2797 34 19.4284 34 17.4999C34 15.5714 33.6692 13.7202 33.0612 12H1.93884C1.33083 13.7202 1 15.5714 1 17.4999C1 19.4284 1.33087 21.2797 1.93893 23H33.0611Z" fill="#0039A6"/>
<path fill-rule="evenodd" clip-rule="evenodd" d="M33.0612 23C30.7961 29.4086 24.6843 34 17.5001 34C10.3159 34 4.20407 29.4086 1.93896 23H33.0612Z" fill="#D52B1E"/>
<path fill-rule="evenodd" clip-rule="evenodd" d="M33.0612 12H1.93896C4.20406 5.59145 10.3159 1 17.5001 1C24.6843 1 30.7961 5.59145 33.0612 12Z" fill="white"/>
</g>
<defs>
<clipPath id="clip0_1007_141">
<rect width="35" height="35" fill="white"/>
</clipPath>
</defs>
</svg>
