<svg width="35" height="35" viewBox="0 0 35 35" fill="none" xmlns="http://www.w3.org/2000/svg">
<g clip-path="url(#clip0_1007_155)">
<path d="M23.8369 25.0264H22.3125C22.3125 22.4561 20.1523 20.3643 17.5 20.3643C14.8477 20.3643 12.6875 22.4561 12.6875 25.0264H11.1631C11.1631 21.6152 14.0068 18.8399 17.5 18.8399C20.9932 18.833 23.8369 21.6084 23.8369 25.0264Z" fill="#BBADA4"/>
<path d="M17.5 18.3408C15.1963 18.3408 13.3164 16.4609 13.3164 14.1572C13.3164 11.8535 15.1895 9.97363 17.5 9.97363C19.8037 9.97363 21.6836 11.8467 21.6836 14.1572C21.6836 16.4678 19.8037 18.3408 17.5 18.3408ZM17.5 11.498C16.0371 11.498 14.8408 12.6875 14.8408 14.1572C14.8408 15.627 16.0371 16.8164 17.5 16.8164C18.9629 16.8164 20.1592 15.627 20.1592 14.1572C20.1592 12.6875 18.9629 11.498 17.5 11.498Z" fill="#BBADA4"/>
<path d="M17.5342 1.47656C19.7012 1.47656 21.7998 1.90039 23.7822 2.73437C25.6963 3.54101 27.4121 4.70312 28.8818 6.17285C30.3584 7.64941 31.5137 9.36523 32.3203 11.2725C33.1543 13.248 33.5781 15.3535 33.5781 17.5205C33.5781 19.6875 33.1543 21.7861 32.3203 23.7685C31.5137 25.6826 30.3516 27.3984 28.8818 28.8681C27.4053 30.3447 25.6895 31.5 23.7822 32.3066C21.8066 33.1406 19.7012 33.5644 17.5342 33.5644C15.3672 33.5644 13.2686 33.1406 11.2861 32.3066C9.37207 31.5 7.65625 30.3379 6.18652 28.8681C4.7168 27.3984 3.55469 25.6826 2.74805 23.7754C1.91406 21.7998 1.49023 19.6943 1.49023 17.5273C1.49023 15.3603 1.91406 13.2617 2.74805 11.2793C3.55469 9.36523 4.7168 7.64941 6.18652 6.17968C7.66309 4.70312 9.37891 3.54785 11.2861 2.74121C13.2686 1.90723 15.3672 1.47656 17.5342 1.47656ZM17.5342 0.0273438C7.86816 0.0273438 0.0341797 7.86132 0.0341797 17.5273C0.0341797 27.1933 7.86816 35.0273 17.5342 35.0273C27.2002 35.0273 35.0342 27.1933 35.0342 17.5273C35.0342 7.86132 27.2002 0.0273438 17.5342 0.0273438Z" fill="#A3C0CE"/>
</g>
<defs>
<clipPath id="clip0_1007_155">
<rect width="35" height="35" fill="white"/>
</clipPath>
</defs>
</svg>
