<svg width="35" height="35" viewBox="0 0 35 35" fill="none" xmlns="http://www.w3.org/2000/svg">
<g clip-path="url(#clip0_1029_396)">
<path d="M21.3555 12.0518C23.1875 12.0518 24.6709 13.542 24.6709 15.3672C24.6709 16.6865 23.2764 18.7305 20.8496 20.9727C19.5713 22.1553 18.2861 23.1465 17.4863 23.7275C16.6865 23.1602 15.4082 22.1963 14.1367 21.041C11.6826 18.7988 10.3291 16.7822 10.3291 15.3604C10.3291 14.2324 10.6367 13.3779 11.252 12.8242C11.9629 12.1816 12.9473 12.0449 13.6514 12.0449C14.7178 12.0449 15.6953 12.5439 16.3311 13.4189L17.5068 15.0322L18.6826 13.4189C19.3115 12.5508 20.2891 12.0518 21.3555 12.0518ZM21.3555 10.5957C19.7695 10.5957 18.3682 11.375 17.5 12.5645C16.6318 11.375 15.2305 10.5957 13.6445 10.5957C11.0127 10.5957 8.87305 12.0859 8.87305 15.3672C8.87305 19.9268 17.5 25.5049 17.5 25.5049C17.5 25.5049 26.127 19.7217 26.127 15.3672C26.127 12.7354 23.9873 10.5957 21.3555 10.5957Z" fill="#BBADA4"/>
<path d="M17.5342 1.45605C19.7012 1.45605 21.7998 1.87988 23.7822 2.71387C25.6963 3.52051 27.4121 4.68262 28.8818 6.15234C30.3584 7.62891 31.5137 9.34473 32.3203 11.252C33.1543 13.2275 33.5781 15.333 33.5781 17.5C33.5781 19.667 33.1543 21.7656 32.3203 23.748C31.5137 25.6621 30.3516 27.3779 28.8818 28.8477C27.4053 30.3242 25.6895 31.4795 23.7822 32.2861C21.8066 33.1201 19.7012 33.5439 17.5342 33.5439C15.3672 33.5439 13.2686 33.1201 11.2861 32.2861C9.37207 31.4795 7.65625 30.3174 6.18652 28.8477C4.7168 27.3779 3.55469 25.6553 2.74805 23.748C1.91406 21.7656 1.49023 19.667 1.49023 17.5C1.49023 15.333 1.91406 13.2344 2.74805 11.252C3.55469 9.33789 4.7168 7.62207 6.18652 6.15234C7.66309 4.67578 9.37891 3.52051 11.2861 2.71387C13.2686 1.87988 15.3672 1.45605 17.5342 1.45605ZM17.5342 0C7.86816 0 0.0341797 7.83398 0.0341797 17.5C0.0341797 27.166 7.86816 35 17.5342 35C27.2002 35 35.0342 27.166 35.0342 17.5C35.0342 7.83398 27.2002 0 17.5342 0Z" fill="#A3C0CE"/>
</g>
<defs>
<clipPath id="clip0_1029_396">
<rect width="35" height="35" fill="white"/>
</clipPath>
</defs>
</svg>
