<svg width="35" height="35" viewBox="0 0 35 35" fill="none" xmlns="http://www.w3.org/2000/svg">
<path d="M22.4424 13.8564L21.123 8.57227L19.708 8.92773L20.9385 13.8564H14.0615L15.292 8.92773L13.877 8.57227L12.5576 13.8496H8.75V15.3125H10.3086L11.6689 24.1719C11.7236 24.5273 12.0312 24.7871 12.3867 24.7871H22.5928C22.9551 24.7871 23.2559 24.5273 23.3105 24.1719L24.6914 15.3125H26.25V13.8564H22.4424ZM21.9775 23.3311H13.0225L11.792 15.3125H23.2148L21.9775 23.3311Z" fill="#BBADA4"/>
<path d="M17.5 1.45605C19.667 1.45605 21.7656 1.87988 23.748 2.71387C25.6621 3.52051 27.3779 4.68262 28.8477 6.15234C30.3242 7.62891 31.4795 9.34473 32.2861 11.252C33.1201 13.2275 33.5439 15.333 33.5439 17.5C33.5439 19.667 33.1201 21.7656 32.2861 23.748C31.4795 25.6621 30.3174 27.3779 28.8477 28.8477C27.3711 30.3242 25.6553 31.4795 23.748 32.2861C21.7725 33.1201 19.667 33.5439 17.5 33.5439C15.333 33.5439 13.2344 33.1201 11.252 32.2861C9.33789 31.4795 7.62207 30.3174 6.15234 28.8477C4.68262 27.3779 3.52051 25.6553 2.71387 23.748C1.87988 21.7725 1.45605 19.667 1.45605 17.5C1.45605 15.333 1.87988 13.2344 2.71387 11.252C3.52051 9.33789 4.68262 7.62207 6.15234 6.15234C7.62891 4.67578 9.34473 3.52051 11.252 2.71387C13.2344 1.87988 15.333 1.45605 17.5 1.45605ZM17.5 0C7.83398 0 0 7.83398 0 17.5C0 27.166 7.83398 35 17.5 35C27.166 35 35 27.166 35 17.5C35 7.83398 27.166 0 17.5 0Z" fill="#A3C0CE"/>
</svg>
