<svg width="19" height="17" viewBox="0 0 19 17" fill="none" xmlns="http://www.w3.org/2000/svg">
<path d="M13.5523 1.58086C15.5414 1.58086 17.152 3.19883 17.152 5.18047C17.152 6.61289 15.6379 8.83203 13.0031 11.2664C11.6152 12.5504 10.2199 13.6266 9.35156 14.2574C8.4832 13.6414 7.09531 12.5949 5.71484 11.3406C3.05039 8.90625 1.58086 6.7168 1.58086 5.17305C1.58086 3.94844 1.91484 3.0207 2.58281 2.41953C3.35469 1.72188 4.42344 1.57344 5.18789 1.57344C6.3457 1.57344 7.40703 2.11523 8.09727 3.06523L9.37383 4.8168L10.6504 3.06523C11.3332 2.12266 12.3945 1.58086 13.5523 1.58086ZM13.5523 0C11.8305 0 10.309 0.846094 9.36641 2.1375C8.42383 0.846094 6.90234 0 5.18047 0C2.32305 0 0 1.61797 0 5.18047C0 10.1309 9.36641 16.1871 9.36641 16.1871C9.36641 16.1871 18.7328 9.9082 18.7328 5.18047C18.7328 2.32305 16.4098 0 13.5523 0Z" fill="#BBADA4"/>
</svg>
