<svg width="53" height="33" viewBox="0 0 53 33" fill="none" xmlns="http://www.w3.org/2000/svg">
<path d="M11.456 0.0779472C11.5599 -0.0259824 11.73 -0.0259824 11.8339 0.0779472L19.2649 7.46167C19.4822 7.67898 19.7657 7.75456 20.068 7.71677L21.8159 7.49474C22.6993 7.38136 23.4693 7.74039 24.3763 8.64741L24.8488 9.11982L28.269 12.54L41.605 25.8761C42.0019 26.2729 42.0019 26.9201 41.605 27.3169L36.2196 32.7024C35.8228 33.0992 35.1756 33.0992 34.7788 32.7024L21.4427 19.3663L18.0225 15.9461L17.5501 15.4737C16.7753 14.6989 16.2746 13.8675 16.3974 12.9132L16.6241 11.1228C16.6572 10.8441 16.5627 10.5607 16.3643 10.3623L8.95698 2.95491C8.85305 2.85098 8.85305 2.68091 8.95698 2.57698L11.456 0.0779472Z" fill="url(#paint0_linear_34_534820)"/>
<path d="M41.3687 0.0779472C41.2648 -0.0259824 41.0947 -0.0259824 40.9908 0.0779472L33.5598 7.46167C33.3425 7.67898 33.059 7.75456 32.7567 7.71677L31.0088 7.49474C30.1254 7.38136 29.3554 7.74039 28.4483 8.64741L27.9759 9.11982L24.5557 12.54L11.2244 25.8761C10.8276 26.2729 10.8276 26.9201 11.2244 27.3169L16.6098 32.7024C17.0066 33.0992 17.6538 33.0992 18.0507 32.7024L31.382 19.3663L34.8022 15.9461L35.2746 15.4737C36.0494 14.6989 36.5501 13.8675 36.4273 12.9132L36.2005 11.1228C36.1675 10.8441 36.262 10.5607 36.4604 10.3623L43.8677 2.95491C43.9716 2.85098 43.9716 2.68091 43.8677 2.57698L41.3687 0.0779472Z" fill="url(#paint1_linear_34_534820)"/>
<path d="M10.1901 15.1146L6.80768 14.8028L5.46605 11.685C5.37156 11.4676 5.0645 11.4676 4.97002 11.685L3.62838 14.8028L0.245948 15.1146C0.00974455 15.1382 -0.0847369 15.4311 0.0900538 15.587L2.64105 17.8262L1.89465 21.1378C1.84268 21.3693 2.09306 21.5535 2.2962 21.4307L5.21567 19.697L8.13515 21.4307C8.33828 21.5535 8.58866 21.3693 8.53669 21.1378L7.79029 17.8262L10.3413 15.587C10.5255 15.4311 10.4263 15.1382 10.1901 15.1146Z" fill="url(#paint2_linear_34_534820)"/>
<path d="M52.57 15.1146L49.1876 14.8028L47.8459 11.685C47.7514 11.4676 47.4444 11.4676 47.3499 11.685L46.0083 14.8028L42.6258 15.1146C42.3896 15.1382 42.2951 15.4311 42.4699 15.587L45.0209 17.8262L44.2745 21.1378C44.2226 21.3693 44.4729 21.5535 44.6761 21.4307L47.5956 19.697L50.515 21.4307C50.7182 21.5535 50.9685 21.3693 50.9166 21.1378L50.1702 17.8262L52.7212 15.587C52.9007 15.4311 52.8062 15.1382 52.57 15.1146Z" fill="url(#paint3_linear_34_534820)"/>
<defs>
<linearGradient id="paint0_linear_34_534820" x1="21.1132" y1="19.112" x2="32.7003" y2="7.52492" gradientUnits="userSpaceOnUse">
<stop offset="0.0214" stop-color="#CC9E42"/>
<stop offset="0.4204" stop-color="#FCE294"/>
<stop offset="0.835" stop-color="#FFF9E1"/>
<stop offset="1" stop-color="#FCE294"/>
</linearGradient>
<linearGradient id="paint1_linear_34_534820" x1="31.7135" y1="19.112" x2="20.1263" y2="7.52489" gradientUnits="userSpaceOnUse">
<stop offset="0.0214" stop-color="#CC9E42"/>
<stop offset="0.4204" stop-color="#FCE294"/>
<stop offset="0.835" stop-color="#FFF9E1"/>
<stop offset="1" stop-color="#FCE294"/>
</linearGradient>
<linearGradient id="paint2_linear_34_534820" x1="5.21874" y1="32.7619" x2="5.21874" y2="-7.76149" gradientUnits="userSpaceOnUse">
<stop offset="0.0214" stop-color="#CC9E42"/>
<stop offset="0.4204" stop-color="#FCE294"/>
<stop offset="0.835" stop-color="#FFF9E1"/>
<stop offset="1" stop-color="#FCE294"/>
</linearGradient>
<linearGradient id="paint3_linear_34_534820" x1="47.5973" y1="32.7619" x2="47.5973" y2="-7.76149" gradientUnits="userSpaceOnUse">
<stop offset="0.0214" stop-color="#CC9E42"/>
<stop offset="0.4204" stop-color="#FCE294"/>
<stop offset="0.835" stop-color="#FFF9E1"/>
<stop offset="1" stop-color="#FCE294"/>
</linearGradient>
</defs>
</svg>
