<svg width="36" height="33" viewBox="0 0 36 33" fill="none" xmlns="http://www.w3.org/2000/svg">
<path d="M2.57698 0.0779472C2.68091 -0.0259824 2.85098 -0.0259824 2.95491 0.0779472L10.3859 7.46167C10.6032 7.67898 10.8866 7.75456 11.189 7.71677L12.9369 7.49474C13.8203 7.38136 14.5903 7.74039 15.4973 8.64741L15.9697 9.11982L19.39 12.54L32.726 25.8761C33.1228 26.2729 33.1228 26.9201 32.726 27.3169L27.3406 32.7024C26.9437 33.0992 26.2965 33.0992 25.8997 32.7024L12.5637 19.3663L9.14344 15.9461L8.67103 15.4737C7.89629 14.6989 7.39553 13.8675 7.51836 12.9132L7.74512 11.1228C7.77818 10.8441 7.6837 10.5607 7.48529 10.3623L0.0779472 2.95491C-0.0259824 2.85098 -0.0259824 2.68091 0.0779472 2.57698L2.57698 0.0779472Z" fill="url(#paint0_linear_34_534858)"/>
<path d="M32.4902 0.0779472C32.3863 -0.0259824 32.2162 -0.0259824 32.1123 0.0779472L24.6813 7.46167C24.464 7.67898 24.1806 7.75456 23.8782 7.71677L22.1303 7.49474C21.2469 7.38136 20.4769 7.74039 19.5699 8.64741L19.0975 9.11982L15.6772 12.54L2.3412 25.8761C1.94437 26.2729 1.94437 26.9201 2.3412 27.3169L7.72664 32.7024C8.12346 33.0992 8.77066 33.0992 9.16748 32.7024L22.5035 19.3663L25.9238 15.9461L26.3962 15.4737C27.1709 14.6989 27.6717 13.8675 27.5488 12.9132L27.3221 11.1228C27.289 10.8441 27.3835 10.5607 27.5819 10.3623L34.9892 2.95491C35.0932 2.85098 35.0932 2.68091 34.9892 2.57698L32.4902 0.0779472Z" fill="url(#paint1_linear_34_534858)"/>
<defs>
<linearGradient id="paint0_linear_34_534858" x1="12.2326" y1="19.1119" x2="23.8197" y2="7.52482" gradientUnits="userSpaceOnUse">
<stop offset="0.0214" stop-color="#8C8C8C"/>
<stop offset="0.4204" stop-color="#CACACA"/>
<stop offset="0.6715" stop-color="#CACACA"/>
<stop offset="0.835" stop-color="#CACACA"/>
<stop offset="1" stop-color="#CACACA"/>
</linearGradient>
<linearGradient id="paint1_linear_34_534858" x1="22.8333" y1="19.1119" x2="11.2462" y2="7.52482" gradientUnits="userSpaceOnUse">
<stop offset="0.0214" stop-color="#8C8C8C"/>
<stop offset="0.4204" stop-color="#CACACA"/>
<stop offset="0.6715" stop-color="#CACACA"/>
<stop offset="0.835" stop-color="#CACACA"/>
<stop offset="1" stop-color="#CACACA"/>
</linearGradient>
</defs>
</svg>
