<svg width="16" height="16" viewBox="0 0 16 16" fill="none" xmlns="http://www.w3.org/2000/svg">
<path d="M16 6.30623C16 2.8289 13.1718 0 9.69533 0C6.21887 0 3.39067 2.8289 3.39067 6.30623C3.39067 7.73976 3.88957 9.14785 4.79523 10.2667L4.8715 10.3621L0.0603774 15.1744C0.0222443 15.2125 0 15.2634 0 15.3174C0 15.3714 0.0222443 15.4223 0.0603774 15.4604L0.540218 15.9404C0.619662 16.0199 0.74995 16.0199 0.829394 15.9404L5.64052 11.1281L5.73585 11.2044C6.85442 12.1103 8.26216 12.6093 9.69533 12.6093C13.1718 12.6125 16 9.78356 16 6.30623ZM14.9164 6.30623C14.9164 9.18599 12.5744 11.5286 9.69533 11.5286C6.81629 11.5286 4.47428 9.18599 4.47428 6.30623C4.47428 3.42647 6.81629 1.08388 9.69533 1.08388C12.5744 1.08388 14.9164 3.42647 14.9164 6.30623Z" fill="#A6A6A6"/>
</svg>
