<svg width="28" height="28" viewBox="0 0 28 28" fill="none" xmlns="http://www.w3.org/2000/svg">
<path d="M14 28C6.28 28 0 21.72 0 14C0 6.28 6.28 0 14 0C21.72 0 28 6.28 28 14C28 21.72 21.72 28 14 28ZM14 2.235C7.51 2.235 2.23 7.51 2.23 14C2.23 20.49 7.51 25.77 14 25.77C20.49 25.77 25.765 20.49 25.765 14.005C25.765 7.52 20.49 2.235 14 2.235Z" fill="#A3C0CE"/>
<path d="M19.35 10.0901C18.95 10.0901 18.57 10.2451 18.285 10.5301C18 10.8151 17.845 11.1951 17.845 11.5951V16.3351C17.845 17.0001 17.33 17.5551 16.7 17.5651C16.385 17.5701 16.085 17.4501 15.86 17.2301C15.635 17.0101 15.51 16.7101 15.51 16.3951V11.5951C15.51 10.7651 14.835 10.0901 14.005 10.0901C13.175 10.0901 12.5 10.7651 12.5 11.5951V16.3351C12.5 17.0001 11.985 17.5551 11.355 17.5651C11.04 17.5701 10.74 17.4501 10.515 17.2301C10.29 17.0101 10.165 16.7101 10.165 16.3951V13.0701C10.85 12.9301 11.365 12.3201 11.365 11.5951C11.365 10.8701 10.85 10.2601 10.165 10.1201V9.47009C10.165 8.64009 9.49 7.96509 8.66 7.96509C7.83 7.96509 7.155 8.64009 7.155 9.47009V16.3101C7.155 18.6051 8.98 20.5151 11.225 20.5751C12.255 20.6001 13.235 20.2551 14.01 19.6051C14.755 20.2301 15.695 20.5751 16.685 20.5751C16.72 20.5751 16.755 20.5751 16.795 20.5751C19.04 20.5201 20.865 18.6051 20.865 16.3101V11.5951C20.855 10.7651 20.18 10.0901 19.35 10.0901Z" fill="#A3C0CE"/>
</svg>
