<svg width="18" height="18" viewBox="0 0 18 18" fill="none" xmlns="http://www.w3.org/2000/svg">
<path d="M7.5025 9.00007L0.310091 1.80764C-0.103452 1.39409 -0.103275 0.723689 0.310091 0.310158C0.723634 -0.103386 1.39403 -0.103386 1.80756 0.310158L8.99997 7.50259L16.1924 0.310158C16.6059 -0.103386 17.2763 -0.103386 17.6898 0.310158C18.1034 0.723703 18.1034 1.39411 17.6898 1.80764L10.4974 9.00007L17.6898 16.1925C18.1032 16.606 18.1032 17.2764 17.6898 17.69C17.2763 18.1033 16.6059 18.1033 16.1924 17.69L8.99997 10.4975L1.80756 17.69C1.39402 18.1033 0.72362 18.1033 0.310091 17.69C-0.103275 17.2764 -0.103275 16.606 0.310091 16.1925L7.5025 9.00007Z" fill="#A8BFCC"/>
</svg>
