<svg width="197" height="10" viewBox="0 0 197 10" fill="none" xmlns="http://www.w3.org/2000/svg">
<path d="M181.83 9.36494C177.508 9.36494 175.28 7.4521 173.313 5.76182C171.496 4.19856 169.923 2.85131 166.659 2.85131C163.399 2.85131 161.826 4.19856 160.008 5.76182C158.043 7.45041 155.82 9.36494 151.498 9.36494C147.184 9.36494 144.958 7.4521 142.995 5.76182C141.18 4.19856 139.61 2.85131 136.352 2.85131C133.091 2.85131 131.52 4.19856 129.703 5.76182C127.735 7.45041 125.511 9.36494 121.196 9.36494C116.878 9.36494 114.652 7.4521 112.69 5.76182C110.87 4.19856 109.301 2.85131 106.041 2.85131C102.781 2.85131 101.21 4.19856 99.3941 5.76182C97.4318 7.45041 95.2073 9.36494 90.8916 9.36494C86.5743 9.36494 84.3483 7.4521 82.3845 5.76182C80.5673 4.19856 78.9991 2.85131 75.7373 2.85131C72.4772 2.85131 70.9105 4.19856 69.0936 5.76182C67.1312 7.45041 64.905 9.36494 60.5911 9.36494C56.2788 9.36494 54.0528 7.4521 52.0936 5.76182C50.278 4.19856 48.7098 2.85131 45.4545 2.85131C42.196 2.85131 40.6276 4.19856 38.8107 5.76182C36.8484 7.45041 34.6222 9.36494 30.3052 9.36494C25.9879 9.36494 23.7653 7.4521 21.7998 5.76182C19.9825 4.19856 18.4144 2.85131 15.156 2.85131C11.8959 2.85131 10.3275 4.19856 8.50884 5.76182C6.53989 7.45206 4.31538 9.36494 0 9.36494V6.5138C3.25848 6.5138 4.82685 5.1616 6.64378 3.59834C8.6061 1.91469 10.8323 0.000207901 15.1492 0.000207901C19.4666 0.000207901 21.6892 1.91304 23.6547 3.59834C25.4719 5.1616 27.0401 6.5138 30.2985 6.5138C33.5568 6.5138 35.1253 5.1616 36.9423 3.59834C38.9046 1.91469 41.1308 0.000207901 45.4477 0.000207901C49.76 0.000207901 51.9826 1.91304 53.9452 3.59834C55.7607 5.1616 57.3289 6.5138 60.5843 6.5138C63.8428 6.5138 65.4111 5.1616 67.2281 3.59834C69.1904 1.91469 71.4166 0.000207901 75.7306 0.000207901C80.0446 0.000207901 82.2705 1.91304 84.236 3.59834C86.0533 5.1616 87.6248 6.5138 90.8849 6.5138C94.1434 6.5138 95.7134 5.1616 97.5287 3.59834C99.491 1.91469 101.72 0.000207901 106.034 0.000207901C110.351 0.000207901 112.579 1.91304 114.541 3.59834C116.358 5.1616 117.927 6.5138 121.188 6.5138C124.449 6.5138 126.017 5.1616 127.836 3.59834C129.803 1.91469 132.027 0.000207901 136.346 0.000207901C140.663 0.000207901 142.886 1.91304 144.852 3.59834C146.667 5.1616 148.237 6.5138 151.494 6.5138C154.754 6.5138 156.327 5.1616 158.144 3.59834C160.11 1.91469 162.333 0.000207901 166.655 0.000207901C170.977 0.000207901 173.203 1.91304 175.165 3.59834C176.987 5.1616 178.561 6.5138 181.826 6.5138C185.089 6.5138 186.664 5.1616 188.481 3.59834C190.447 1.91469 192.675 0.000207901 196.997 0.000207901V2.85135C193.733 2.85135 192.16 4.1986 190.341 5.76186C188.379 7.4521 186.153 9.36499 181.829 9.36499L181.83 9.36494Z" fill="#A8BFCC"/>
</svg>
